<?xml version="1.0" encoding="utf-8"?>
<!-- Generator: Adobe Illustrator 18.0.0, SVG Export Plug-In . SVG Version: 6.00 Build 0)  -->
<!DOCTYPE svg PUBLIC "-//W3C//DTD SVG 1.1//EN" "http://www.w3.org/Graphics/SVG/1.1/DTD/svg11.dtd">
<svg version="1.1" id="Layer_1" xmlns="http://www.w3.org/2000/svg" xmlns:xlink="http://www.w3.org/1999/xlink" x="0px" y="0px"
	 width="86.6px" height="100px" viewBox="0 0 86.6 100" enable-background="new 0 0 86.6 100" xml:space="preserve">
<g>
	<path fill="#231F20" d="M43.3,0L0,25v50l43.3,25l43.3-25V25L43.3,0z M84,73.5L43.3,97L2.6,73.5v-47L43.3,3L84,26.5V73.5z M81.5,72
		l-38.2,22L5.1,72V28l38.2-22l38.2,22V72z"/>
	<g>
		<g>
			<g>
				<path fill="#FFFFFF" d="M25.9,67.1l1.6,6.6l0.1,0.7l0.1-0.7l1.7-6.8h1.7l-2.6,9.2h-1.8L25,69.3l-0.1-0.5l-0.1,0.5L23,76.1h-1.8
					l-2.6-9.2h1.8l1.7,6.8l0.1,0.7l0.1-0.7l1.6-6.6H25.9z"/>
				<path fill="#FFFFFF" d="M33.2,74.1l-0.7,2h-1.8l3.3-9.2h1.8l3.3,9.2h-1.9L35,69.3l-0.1-0.5l-0.1,0.5l-1.1,3.3l-0.1,0.3l0.2,0h1
					c0.2,0,0.3,0.1,0.5,0.1c0.1,0.1,0.3,0.2,0.4,0.3c0.1,0.1,0.2,0.3,0.3,0.4c0.1,0.2,0.1,0.3,0.2,0.4H33.2z"/>
				<path fill="#FFFFFF" d="M43,71.8v4.3h-1.8v-4.1L38.1,67h2L43,71.8z M44.1,67H46l-2.7,4.4c-0.1-0.1-0.2-0.3-0.3-0.4
					c-0.1-0.2-0.2-0.4-0.3-0.6c-0.1-0.2-0.1-0.4-0.1-0.6c0-0.2,0.1-0.4,0.2-0.6L44.1,67z"/>
				<path fill="#FFFFFF" d="M52.1,69.5c0,0.4-0.1,0.8-0.3,1.3s-0.5,0.9-0.8,1.3c-0.3,0.4-0.7,0.9-1.1,1.3c-0.4,0.4-0.7,0.8-1,1.1
					l-0.2,0.2l0.3,0h3.3v1.4h-5.8v-0.8c0.1-0.3,0.3-0.6,0.5-0.9c0.2-0.3,0.5-0.6,0.8-1c0.3-0.3,0.6-0.7,0.9-1c0.3-0.3,0.6-0.7,0.8-1
					c0.3-0.3,0.4-0.6,0.6-1c0.2-0.3,0.2-0.6,0.2-0.9c0-0.4-0.1-0.7-0.4-0.9c-0.3-0.2-0.6-0.3-1-0.3c-0.2,0-0.4,0-0.7,0.1
					c-0.3,0.1-0.6,0.2-0.9,0.3l-0.4-1.2c0.4-0.2,0.8-0.3,1.2-0.4c0.4-0.1,0.7-0.1,1-0.1c0.5,0,0.9,0.1,1.3,0.2
					c0.4,0.1,0.7,0.3,1,0.5c0.3,0.2,0.5,0.5,0.6,0.8C52,68.8,52.1,69.2,52.1,69.5z"/>
				<path fill="#FFFFFF" d="M57.8,76.3c-0.8,0-1.5-0.1-2.1-0.4c-0.6-0.3-1.1-0.6-1.5-1c-0.4-0.4-0.7-0.9-0.9-1.5
					c-0.2-0.6-0.3-1.2-0.3-1.9s0.1-1.3,0.3-1.9c0.2-0.6,0.6-1.1,1-1.5c0.4-0.4,0.9-0.8,1.5-1c0.6-0.3,1.3-0.4,2.1-0.4
					c0.4,0,0.7,0,1.1,0.1c0.4,0.1,0.8,0.2,1.1,0.3l-0.4,1.2c-0.4-0.1-0.7-0.2-0.9-0.2c-0.3-0.1-0.5-0.1-0.8-0.1
					c-0.5,0-0.9,0.1-1.3,0.3c-0.4,0.2-0.7,0.4-0.9,0.8s-0.4,0.7-0.6,1.1c-0.1,0.4-0.2,0.8-0.2,1.3s0.1,0.9,0.2,1.3
					c0.1,0.4,0.3,0.8,0.6,1.1c0.3,0.3,0.6,0.6,0.9,0.8c0.4,0.2,0.8,0.3,1.3,0.3c0.6,0,1.1-0.1,1.8-0.4l0.5,1.1
					c-0.4,0.2-0.8,0.3-1.1,0.4C58.5,76.2,58.2,76.3,57.8,76.3z"/>
				<path fill="#FFFFFF" d="M64.4,76.3c-0.6,0-1.1-0.1-1.5-0.3c-0.4-0.2-0.8-0.4-1.2-0.7c-0.3-0.3-0.6-0.7-0.7-1.2
					c-0.2-0.5-0.3-1-0.3-1.6v-5.7h1.8v5.9c0,0.3,0.1,0.6,0.1,0.9c0.1,0.3,0.2,0.5,0.4,0.7c0.2,0.2,0.4,0.3,0.6,0.4
					c0.2,0.1,0.5,0.1,0.8,0.1c0.3,0,0.5-0.1,0.8-0.1c0.2-0.1,0.4-0.3,0.6-0.4c0.2-0.2,0.3-0.4,0.4-0.7c0.1-0.3,0.1-0.6,0.1-0.9v-5.9
					H68v5.7c0,0.6-0.1,1.1-0.3,1.5c-0.2,0.4-0.4,0.8-0.7,1.2s-0.7,0.6-1.2,0.8C65.4,76.2,64.9,76.3,64.4,76.3z"/>
			</g>
		</g>
		<path fill="#FFFFFF" d="M43.1,60.8c9.8,0,21.3-4.4,22.5-15.7c0.3-2.5-1.5-12.8-9.1-21.3l-6.7,8.7H36.4l-6.7-8.7
			c-7.5,8.5-9.3,18.8-9.1,21.3C21.8,56.3,33.3,60.8,43.1,60.8"/>
		<g>
			<path d="M43.9,53.3l1.8-2.5c0.3-0.5,0.2-1.1-0.3-1.4c-0.7-0.4-1.4-0.6-2.2-0.6s-1.6,0.2-2.2,0.6c-0.5,0.3-0.7,0.9-0.3,1.4
				l1.8,2.5C42.7,53.9,43.6,53.9,43.9,53.3z"/>
			<g>
				<path d="M47.3,56.6c-1.8,0-3.4-1.1-4.2-2.6c-0.8,1.6-2.4,2.6-4.2,2.6c-1.1,0-2.2-0.4-3-1.1c-0.2-0.1-0.2-0.4-0.1-0.6
					c0.1-0.2,0.4-0.2,0.6-0.1c0.7,0.6,1.6,0.9,2.5,0.9c1.9,0,3.4-1.3,3.8-3.2c0-0.2,0.2-0.3,0.4-0.3c0.2,0,0.4,0.1,0.4,0.3
					c0.3,1.8,1.9,3.2,3.8,3.2c0.9,0,1.8-0.3,2.5-0.9c0.2-0.1,0.4-0.1,0.6,0.1c0.1,0.2,0.1,0.4-0.1,0.6
					C49.5,56.2,48.4,56.6,47.3,56.6z"/>
			</g>
			<path d="M65.2,41c-0.5,0.1-1.1,0.3-1.7,0.4c-5.4,1.3-12.7,1.9-20.4,1.9s-15-0.7-20.4-1.9c-0.6-0.1-1.2-0.3-1.7-0.4
				c-0.1,0.4-0.2,0.8-0.2,1.2c1.1,0.3,2.3,0.6,3.6,0.8c0.3,3.3,3.4,5.9,7.4,6c3.4,0.1,6.3-1.9,7.2-4.5c1.4,0.1,2.8,0.1,4.1,0.1
				c1.1,0,2.3,0,3.4-0.1c0.9,2.6,3.8,4.5,7.2,4.4c3.9-0.1,7.1-2.6,7.4-5.8c1.6-0.3,3-0.6,4.3-0.9C65.4,41.8,65.3,41.4,65.2,41z"/>
		</g>
	</g>
</g>
</svg>
