<svg enable-background="new 0 0 173.2 200" viewBox="0 0 173.2 200" xmlns="http://www.w3.org/2000/svg"><path d="m86.6 0l-86.6 50v100l86.6 50 86.6-50v-100zm81.4 147l-81.4 47-81.4-47v-94l81.4-47 81.4 47zm-5-3l-76.4 44-76.4-44v-88l76.4-44 76.4 44z" fill="#231f20"/><g fill="#fff"><path d="m51.8 134.2l3.2 13.2.2 1.4.2-1.4 3.4-13.6h3.4l-5.2 18.4h-3.6l-3.4-13.6-.2-1-.2 1-3.6 13.6h-3.6l-5.2-18.4h3.6l3.4 13.6.2 1.4.2-1.4 3.2-13.2z"/><path d="m66.4 148.2l-1.4 4h-3.6l6.6-18.4h3.6l6.6 18.4h-3.8l-4.4-13.6-.2-1-.2 1-2.2 6.6-.2.6h.4 2c .4 0 .6.2 1 .2.2.2.6.4.8.6.2.2.4.6.6.8.2.4.2.6.4.8z"/><path d="m86 143.6v8.6h-3.6v-8.2l-6.2-10h4zm2.2-9.6h3.8l-5.4 8.8c-.2-.2-.4-.6-.6-.8-.2-.4-.4-.8-.6-1.2s-.2-.8-.2-1.2.2-.8.4-1.2z"/><path d="m104.2 139c0 .8-.2 1.6-.6 2.6s-1 1.8-1.6 2.6-1.4 1.8-2.2 2.6c-.8.8-1.4 1.6-2 2.2l-.4.4h.6 6.6v2.8h-11.6v-1.6c.2-.6.6-1.2 1-1.8s1-1.2 1.6-2c .6-.6 1.2-1.4 1.8-2 .6-.6 1.2-1.4 1.6-2 .6-.6.8-1.2 1.2-2 .4-.6.4-1.2.4-1.8 0-.8-.2-1.4-.8-1.8-.6-.4-1.2-.6-2-.6-.4 0-.8 0-1.4.2s-1.2.4-1.8.6l-.8-2.4c.8-.4 1.6-.6 2.4-.8s1.4-.2 2-.2c1 0 1.8.2 2.6.4.8.2 1.4.6 2 1s1 1 1.2 1.6c0 .6.2 1.4.2 2"/><path d="m115.6 152.6c-1.6 0-3-.2-4.2-.8s-2.2-1.2-3-2-1.4-1.8-1.8-3-.6-2.4-.6-3.8.2-2.6.6-3.8 1.2-2.2 2-3 1.8-1.6 3-2c1.2-.6 2.6-.8 4.2-.8.8 0 1.4 0 2.2.2.8.2 1.6.4 2.2.6l-.8 2.4c-.8-.2-1.4-.4-1.8-.4-.6-.2-1-.2-1.6-.2-1 0-1.8.2-2.6.6-.8.4-1.4.8-1.8 1.6s-.8 1.4-1.2 2.2c-.2.8-.4 1.6-.4 2.6s.2 1.8.4 2.6c.2.8.6 1.6 1.2 2.2.6.6 1.2 1.2 1.8 1.6.8.4 1.6.6 2.6.6 1.2 0 2.2-.2 3.6-.8l1 2.2c-.8.4-1.6.6-2.2.8-1.4.2-2 .4-2.8.4"/><path d="m128.8 152.6c-1.2 0-2.2-.2-3-.6-.8-.4-1.6-.8-2.4-1.4-.6-.6-1.2-1.4-1.4-2.4-.4-1-.6-2-.6-3.2v-11.4h3.6v11.8c0 .6.2 1.2.2 1.8.2.6.4 1 .8 1.4s.8.6 1.2.8c.4.2 1 .2 1.6.2s1-.2 1.6-.2c.4-.2.8-.6 1.2-.8.4-.4.6-.8.8-1.4.2-.6.2-1.2.2-1.8v-11.8h3.4v11.4c0 1.2-.2 2.2-.6 3-.4.8-.8 1.6-1.4 2.4s-1.4 1.2-2.4 1.6c-.8.4-1.8.6-2.8.6"/></g><path d="m86.2 121.6c19.6 0 42.6-8.8 45-31.4.6-5-3-25.6-18.2-42.6l-13.4 17.4h-26.8l-13.4-17.4c-15 17-18.6 37.6-18.2 42.6 2.4 22.4 25.4 31.4 45 31.4" fill="#fff"/><path d="m87.8 106.6l3.6-5c .6-1 .4-2.2-.6-2.8-1.4-.8-2.8-1.2-4.4-1.2s-3.2.4-4.4 1.2c-1 .6-1.4 1.8-.6 2.8l3.6 5c .4 1.2 2.2 1.2 2.8 0"/><path d="m94.6 113.2c-3.6 0-6.8-2.2-8.4-5.2-1.6 3.2-4.8 5.2-8.4 5.2-2.2 0-4.4-.8-6-2.2-.4-.2-.4-.8-.2-1.2.2-.4.8-.4 1.2-.2 1.4 1.2 3.2 1.8 5 1.8 3.8 0 6.8-2.6 7.6-6.4 0-.4.4-.6.8-.6s.8.2.8.6c.6 3.6 3.8 6.4 7.6 6.4 1.8 0 3.6-.6 5-1.8.4-.2.8-.2 1.2.2.2.4.2.8-.2 1.2-1.6 1.4-3.8 2.2-6 2.2"/><path d="m130.4 82c-1 .2-2.2.6-3.4.8-10.8 2.6-25.4 3.8-40.8 3.8s-30-1.4-40.8-3.8c-1.2-.2-2.4-.6-3.4-.8-.2.8-.4 1.6-.4 2.4 2.2.6 4.6 1.2 7.2 1.6.6 6.6 6.8 11.8 14.8 12 6.8.2 12.6-3.8 14.4-9 2.8.2 5.6.2 8.2.2 2.2 0 4.6 0 6.8-.2 1.8 5.2 7.6 9 14.4 8.8 7.8-.2 14.2-5.2 14.8-11.6 3.2-.6 6-1.2 8.6-1.8 0-.8-.2-1.6-.4-2.4"/></svg>