<svg enable-background="new 0 0 173.1 200" viewBox="0 0 173.1 200" xmlns="http://www.w3.org/2000/svg" xmlns:xlink="http://www.w3.org/1999/xlink"><defs><linearGradient id="H" gradientTransform="matrix(3.3295 0 0 -7.2666 1063.7639 104.4466)" gradientUnits="userSpaceOnUse" x1="-291.3509" x2="-278.7691" y1="7.2403" y2="-5.3373"><stop offset="0" stop-color="#14bcc9"/><stop offset="1" stop-color="#08bccb"/></linearGradient><linearGradient id="P" gradientTransform="matrix(7.8741 0 0 -7.947 2891.72 102.2375)" gradientUnits="userSpaceOnUse" x1="-350.4972" x2="-337.932" xlink:href="#O" y1="5.8962" y2="-6.6708"/><linearGradient id="G" gradientTransform="matrix(11.1064 0 0 -9.7698 4186.2251 106.1576)" gradientUnits="userSpaceOnUse" x1="-367.3434" x2="-354.7616" xlink:href="#F" y1="-3.7081" y2="-16.292"/><linearGradient id="E" gradientTransform="matrix(5.4195 0 0 -11.2522 1892.4691 95.8968)" gradientUnits="userSpaceOnUse" x1="-355.2809" x2="-342.6991" xlink:href="#D" y1="4.4024" y2="-8.1815"/><linearGradient id="F" gradientTransform="matrix(11.1064 0 0 -9.7698 4186.2251 106.1576)" gradientUnits="userSpaceOnUse" x1="-367.3477" x2="-354.7637" y1="-3.7104" y2="-16.2942"><stop offset="0" stop-color="#00939d"/><stop offset="1" stop-color="#03b9c6"/></linearGradient><linearGradient id="I" gradientTransform="matrix(8.0443 0 0 -7.947 2956.6921 96.6964)" gradientUnits="userSpaceOnUse" x1="-359.1449" x2="-346.565" xlink:href="#0" y1="11.1837" y2="-1.396"/><linearGradient id="O" gradientTransform="matrix(7.8741 0 0 -7.947 2891.72 102.2375)" gradientUnits="userSpaceOnUse" x1="-351.3234" x2="-338.7397" y1="5.0698" y2="-7.514"><stop offset="0" stop-color="#4ac4da"/><stop offset="1" stop-color="#36c0d3"/></linearGradient><linearGradient id="J" gradientTransform="matrix(8.0443 0 0 -7.947 2956.6921 96.6964)" gradientUnits="userSpaceOnUse" x1="-356.1601" x2="-343.5802" xlink:href="#0" y1="14.1664" y2="1.5846"/><linearGradient id="N" gradientTransform="matrix(6.1729 0 0 -7.947 2208.7034 96.6964)" gradientUnits="userSpaceOnUse" x1="-338.1623" x2="-325.5911" xlink:href="#M" y1="12.3794" y2="-.192"/><linearGradient id="L" gradientTransform="matrix(8.0929 0 0 -5.5654 2979.3176 109.9088)" gradientUnits="userSpaceOnUse" x1="-355.6819" x2="-343.0832" xlink:href="#K" y1=".6559" y2="-11.9468"/><linearGradient id="K" gradientTransform="matrix(8.0929 0 0 -5.5654 2979.3176 109.9088)" gradientUnits="userSpaceOnUse" x1="-355.0417" x2="-342.4765" y1="1.2876" y2="-11.2795"><stop offset="0" stop-color="#05b6c5"/><stop offset="1" stop-color="#15bdcc"/></linearGradient><linearGradient id="M" gradientTransform="matrix(6.1729 0 0 -7.947 2208.7034 96.6964)" gradientUnits="userSpaceOnUse" x1="-340.8602" x2="-328.2679" y1="9.6878" y2="-2.9046"><stop offset="0" stop-color="#00aebc"/><stop offset="1" stop-color="#00b5c1"/></linearGradient><linearGradient id="D" gradientTransform="matrix(5.4195 0 0 -11.2522 1892.4691 95.8968)" gradientUnits="userSpaceOnUse" x1="-355.0217" x2="-342.4275" y1="4.649" y2="-7.9433"><stop offset="0" stop-color="#0196a2"/><stop offset="1" stop-color="#047f88"/></linearGradient><linearGradient id="4" gradientTransform="matrix(7.4367 0 0 -10.3287 2705.3208 87.618)" gradientUnits="userSpaceOnUse" x1="-367.5454" x2="-354.9761" xlink:href="#3" y1="11.3628" y2="-1.2042"/><linearGradient id="C" gradientTransform="matrix(3.6697 0 0 -21.581 1189.941 62.7492)" gradientUnits="userSpaceOnUse" x1="-333.1734" x2="-320.5939" y1="8.9179" y2="-3.6639"><stop offset="0" stop-color="#009aa6"/><stop offset="1" stop-color="#01a1ae"/></linearGradient><linearGradient id="3" gradientTransform="matrix(7.4367 0 0 -10.3287 2705.3208 87.618)" gradientUnits="userSpaceOnUse" x1="-367.2347" x2="-354.6465" y1="11.7112" y2="-.8811"><stop offset="0" stop-color="#008591"/><stop offset="1" stop-color="#00a3b0"/></linearGradient><linearGradient id="1" gradientTransform="matrix(15.4809 0 0 -10.0614 5935.0171 88.2093)" gradientUnits="userSpaceOnUse" x1="-385.642" x2="-373.0602" y1="12.8071" y2=".2253"><stop offset="0" stop-color="#00a5b1"/><stop offset="1" stop-color="#00a1ae"/></linearGradient><linearGradient id="0" gradientUnits="userSpaceOnUse" x1="-.00007427" x2="173.0856308"><stop offset="0" stop-color="#008b93"/><stop offset="1" stop-color="#00a1ad"/></linearGradient><linearGradient id="2" gradientTransform="matrix(15.4809 0 0 -10.0614 5935.0171 88.2093)" gradientUnits="userSpaceOnUse" x1="-384.7702" x2="-372.1926" xlink:href="#1" y1="13.679" y2="1.0971"/><linearGradient id="5" gradientTransform="matrix(6.7562 0 0 -11.3981 2432.8008 95.3069)" gradientUnits="userSpaceOnUse" x1="-358.0262" x2="-345.4275" y1="4.2856" y2="-8.3109"><stop offset="0" stop-color="#008d99"/><stop offset="1" stop-color="#00a5b2"/></linearGradient><linearGradient id="B" gradientTransform="matrix(8.1172 0 0 -9.7455 2980.9578 106.2356)" gradientUnits="userSpaceOnUse" x1="-361.1465" x2="-348.5644" xlink:href="#A" y1="-2.2312" y2="-14.8131"/><linearGradient id="6" gradientTransform="matrix(6.7562 0 0 -11.3981 2432.8008 95.3069)" gradientUnits="userSpaceOnUse" x1="-362.0609" x2="-349.4769" xlink:href="#5" y1=".2278" y2="-12.3539"/><linearGradient id="A" gradientTransform="matrix(8.1172 0 0 -9.7455 2980.9578 106.2356)" gradientUnits="userSpaceOnUse" x1="-360.138" x2="-347.5562" y1="-1.227" y2="-13.8067"><stop offset="0" stop-color="#00aab8"/><stop offset="1" stop-color="#01a8b5"/></linearGradient><linearGradient id="8" gradientTransform="matrix(8.1172 0 0 -11.3981 2980.9578 95.3069)" gradientUnits="userSpaceOnUse" x1="-363.8828" x2="-351.2988" y1="2.8956" y2="-9.6864"><stop offset="0" stop-color="#008994"/><stop offset="1" stop-color="#00a1ad"/></linearGradient><linearGradient id="7" gradientTransform="matrix(6.7562 0 0 -11.3981 2432.8008 95.3069)" gradientUnits="userSpaceOnUse" x1="-360.2767" x2="-347.6927" xlink:href="#5" y1="2.0246" y2="-10.5551"/><linearGradient id="9" gradientTransform="matrix(8.1172 0 0 -11.3981 2980.9578 95.3069)" gradientUnits="userSpaceOnUse" x1="-367.2305" x2="-354.6465" xlink:href="#8" y1="-.4521" y2="-13.0338"/></defs><path d="m86.5.1l-86.5 49.9v100l86.5 50 86.5-50v-100zm81.5 146.9l-81.4 47-81.4-47v-94l81.4-47 81.4 47zm-5.2-3l-76.3 44.1-76.2-44.1v-88l76.3-44.1 76.2 44.1z" fill="url(#0)"/><path d="m127.8 35.7l-41.2-23.8-29.1 16.8 28.9 39.1z" fill="url(#1)"/><path d="m86.6 6l45.6 26.3 4.4-3.5-50-28.7-35.3 20.3 3.1 4.1z" fill="url(#2)"/><path d="m57.4 28.7l-47.3 27.3v14.8l76.2-3z" fill="url(#3)"/><path d="m5.1 71v-18l49.3-28.5-3.1-4.1-51.3 29.6 1.4 21.2z" fill="url(#4)"/><path d="m10.1 70.8v57l2.9 17.9 31.3 18 42-95.9z" fill="url(#5)"/><path d="m14.1 152.2l1 6.5 25 14.4 2.1-4.6z" fill="url(#6)"/><path d="m1.3 71.2l3.8 23.8v-24z" fill="url(#7)"/><path d="m86.4 67.8l-42.1 95.9 33.9 19.6 47.3-24.1z" fill="url(#8)"/><path d="m42.2 168.5l-2.1 4.6 27.2 15.8 5.5-2.8z" fill="url(#9)"/><path d="m78.2 183.3l8.4 4.8 36.5-21 2.4-7.9z" fill="url(#A)"/><path d="m120.9 174.3l-34.3 19.8-13.8-8-5.5 2.8 19.3 11.1 32-18.5z" fill="url(#B)"/><path d="m0 50v25.5l1.4-4.3z" fill="url(#C)"/><path d="m5.1 147v-52l-3.7-23.8-1.4 4.3v74.5l15.1 8.7-1-6.5z" fill="url(#D)"/><path d="m10.1 144l2.9 1.7-2.9-17.9z" fill="url(#E)"/><path d="m120.9 174.3l-2.3 7.2 38.8-22.4h-10.4z" fill="url(#F)"/><path d="m125.5 159.2l-2.4 7.9 13.6-8z" fill="url(#G)"/><path d="m86.4 67.8l39.1 91.4 2.8-70z" fill="url(#H)"/><path d="m128.3 89.2l23.5-39.7-24-13.8-41.4 32.1z" fill="url(#I)"/><path d="m154.4 45.1l2.7-4.4-20.5-11.9-4.4 3.5z" fill="url(#J)"/><path d="m168 147.1l-21 12h10.3l15.8-9.1v-29.2l-5.1-3.6z" fill="url(#K)"/><path d="m125.5 159.2h11.2l26.3-15v-30.6l-34.6-24.4z" fill="url(#L)"/><path d="m163 75.7v-19.7l-11.2-6.5-23.4 39.7z" fill="url(#M)"/><path d="m168 53v20.7l5.1-2v-21.7l-16-9.3-2.7 4.4z" fill="url(#N)"/><path d="m163 113.6v-37.9l-34.6 13.5z" fill="url(#O)"/><path d="m168 117.2l5.1 3.6v-49.1l-5.1 2z" fill="url(#P)"/><g fill="#fff"><path d="m54.8 24.3l-3-4.2-.9.5 3.1 4.2z" opacity=".2"/><path d="m .4 49.7l-.4.3v7.7l.9 13h-.1l.1.5-.9 2.6v3.3l1.2-3.8 3.9 24.9v-6.4l-3.2-20.1 3.2-.2v-1l-3.3.2z" opacity=".2"/><path d="m10.1 131l2.4 14.4 1 .6-3.4-21.5z" opacity=".2"/><path d="m13.5 151.9l1.2 6.5 1 .7-1-6.5z" opacity=".2"/><path d="m157.5 41l-.9-.6-2.6 4.5.9.5z" opacity=".2"/><path d="m137.1 29.2l-1-.7-4.4 3.5.9.6z" opacity=".2"/><path d="m129.5 88.2l12.3-20.9 10.4-17.6-.9-.5-23.3 39.2-.3-.2v.2l-21-10.7-19.5-9.9 40.9-31.8-1-.6-40.5 31.6-.2-.5-.2.3-28.3-38.4-.9.5 28.3 38.4-75.2 3v1l75.4-3-20.4 46.5-21.4 48.6.9.5 41.7-94.9 38.5 89.9-47.2 24 1 .6 45.9-23.4-2.2 7.2 1.3-.7 1.8-6 .4.8.1-1.7h9.8l1.7-1h-11.4l.2-.5-.3.2 2.7-68.2 34.2 24.1v-1.2l-17.6-12.4-15.9-11.2 33.6-13.1v-1.1l-11.5 4.5zm-4.4 68.8l-37.6-88.1 19.2 9.9 20.9 10.7-.5.8.7-.2z" opacity=".2"/><path d="m146.2 159.7h10.2l1.9-1h-10.4z" opacity=".2"/><path d="m168 117.8l5.1 3.6v-1.2l-5.1-3.6z" opacity=".2"/><path d="m168 73.2v1.1l5.1-2.1v-1z" opacity=".2"/><path d="m39.7 172.9l.8.5 2.1-4.7-.8-.5z" opacity=".2"/><path d="m118 181.8l1.3-.7 2.2-7.2-1.3.8z" opacity=".2"/><path d="m66.8 188.6l1.1.6 5.4-2.8-1-.6z" opacity=".2"/><path d="m0 111.3v-1.3l5.1-4.3v1.3zm173.1-52.8v-1.2l-5.1-3v1.2zm-73.9-39.4l-2.2-1.2-17.6-1.9-1.5.9zm-99.2 127.5v1.8l1.9 2.7 2 1.2zm107.3-134.7l-.5 5.6 1.6 1 2.8-4.3-.9-.5-2.4 3.8.4-5.1zm65.8 86.8l-5.1.7v1l5.1-.7zm-152.9 57.1l21.5 18.3 4.8 2.7-21.5-18.3zm50.6-140.7l-8.7-1-1.6.9 8.7 1zm-65.7 127.8v-1.3l-5.1-4.5v1.3l4.5 3.8zm5-41.7v1.3l94.5-80.3-.9-.5-61.5 52.4zm50.4 13.4l102.5-13.5v-1l-7.1 1-145.8 19.1v1zm-60.5 8l5.1-.7v-1l-5.1.6z" opacity=".2"/><path d="m0 124v3.8l2.8 10.3-1.6-1.4 1.2 1.8-2.4-.8v1l1.4.6-1.4.1v1l2.2-.2-.1.1 1.3-.2.1.3.1-.1 1.5 2.2v-2.4l-.2-.2h.2v-2.2l-1.1.9z" opacity=".3"/><path d="m73.6 7.5l-15.4 8.9-41.6 27.3-16.6 10.9v1.1l15.9-10.4z" opacity=".3"/><path d="m86.6.1l-.5.2h.9z" opacity=".3"/><path d="m161.6 43.3l-2.8-1.6-15.7-3.1 2.7 1.5z" opacity=".3"/><path d="m0 68.3l5.1.5v-1l-5.1-.5z" opacity=".3"/><path d="m126.4 23l-1.1-.7-5.6 2.8 1.1.6z" opacity=".3"/><path d="m84.7 1.3l4.2 6 2.1 1.1-5.5-7.7-1.9 1-.5 6.2 1.1-.6z" opacity=".3"/><path d="m168 106.1l5.1-4.9v-1.4l-5.1 5z" opacity=".3"/><path d="m168 68.5v3.5l5.1-17.1v-3.5z" opacity=".3"/><path d="m168 131.7l5.1 3.9v-1.3l-5.1-3.9z" opacity=".3"/><path d="m25.7 158.9l21.5 18.4 4.8 2.8-21.5-18.4z" opacity=".3"/><path d="m10.4 150l6.7 9.9 2.1 1.1-6.7-9.8z" opacity=".3"/><path d="m107.9 32.6l22.2 4.4-2.7-1.6-18.8-3.8 6.7-3.3-1.1-.6-7 3.4-.2-.4-.1.1-8.8-12.4-2.1-1.2 10.1 14.3-.8.4.7.2-13.2 20.7-13.8 21.5 4.8-60.6-1.1.6-4.9 61.4-67.6-7.3v1l66.8 7.1-37.9 32.3-28.9 24.6v1.3l67.5-57.3v.8l.9-1.3 35.9 20.9 37.4 21.7-31.1 4.1-110.7 14.6v1l72.1-9.6 70.1-9.3-12.7 37.1 1.4-.8 12.2-35.6v.1l.2-.5 9.5 7.2v-1.3l-8.5-6.5h.2l-.7-.5 8.9-8.5v-1.4l-8.6 8.4 8.7-28.9v-3.5l-9.9 32.8zm-28.8 43.5l.4-.3-.4-.1 14.1-21.9 13.6-21.1 45.1 85.6z" opacity=".3"/><path d="m134.7 172.2l1.3-.7 2.6-7.5-1.3.8z" opacity=".3"/><path d="m0 137.4c.5-.3.9-.5 1.4-.5 1.4 0 2.6 1.2 2.6 2.5s-1.2 2.6-2.6 2.6c-.5 0-1-.2-1.4-.5 0 .1 0-4.1 0-4.1m82.8-135.2c.5.3 1 .5 1.5.5 1.4 0 2.6-1.2 2.6-2.5l-.2-.2zm-7.1 73.6c0 1.4 1.2 2.5 2.6 2.5 1.4 0 2.6-1.2 2.6-2.5 0-1.4-1.2-2.5-2.6-2.5-1.4 0-2.6 1.1-2.6 2.5m51.8 83.8c0-1.9-1.6-3.5-3.6-3.5-2 0-3.6 1.5-3.6 3.5 0 1.9 1.6 3.5 3.6 3.5 2 0 3.6-1.6 3.6-3.5m28.2-39.8c0-1.4-1.2-2.5-2.6-2.5-1.4 0-2.6 1.2-2.6 2.5s1.2 2.5 2.6 2.5c1.5 0 2.6-1.2 2.6-2.5" opacity=".77"/><path d="m51.8 134.1l3.2 13.3.3 1.4.2-1.4 3.4-13.5h3.5l-5.1 18.3h-3.6l-3.6-13.5-.2-1.1-.2 1-3.7 13.6h-3.6l-5.2-18.3h3.5l3.4 13.5.2 1.4.3-1.4 3.3-13.3z"/><path d="m66.3 148.2l-1.3 4h-3.6l6.6-18.3h3.6l6.6 18.3h-3.7l-4.5-13.7-.2-1-.2 1-2.2 6.6-.3.5.4-.1h1.9c.4 0 .7.2 1 .3.3.2.5.4.7.6.2.3.4.6.5.8.2.4.3.6.4.9z"/><path d="m85.9 143.7v8.5h-3.5v-8.1l-6.3-10.2h3.9zm2.3-9.8h3.9l-5.3 8.9c-.2-.2-.4-.5-.6-.8-.2-.4-.4-.7-.5-1.1-.2-.4-.2-.8-.2-1.3 0-.5.2-.9.4-1.3z"/><path d="m104.2 139.1c0 .8-.2 1.7-.7 2.5s-1 1.8-1.7 2.7c-.7.9-1.4 1.7-2.1 2.5-.7.8-1.4 1.6-1.9 2.2l-.4.5.6-.1h6.6v2.7h-11.5v-1.5c.2-.6.6-1.2 1.1-1.8.5-.6 1-1.3 1.5-1.9.6-.7 1.2-1.3 1.7-2 .6-.7 1.1-1.4 1.6-2 .5-.7.9-1.3 1.2-1.9.4-.6.5-1.2.5-1.7 0-.8-.3-1.4-.8-1.8-.6-.5-1.2-.7-2-.7-.4 0-.8.1-1.4.2-.6.1-1.1.4-1.8.6l-.9-2.3c.9-.4 1.6-.7 2.3-.8.7-.2 1.4-.2 1.9-.2 1 0 1.8.2 2.6.4.8.2 1.4.6 2 1 .6.5 1 1 1.3 1.5.1.5.3 1.1.3 1.9"/><path d="m115.6 152.6c-1.5 0-3-.2-4.2-.7-1.2-.5-2.2-1.2-3.1-2-.8-.9-1.4-1.9-1.9-3-.5-1.2-.7-2.4-.7-3.7 0-1.3.2-2.5.7-3.7s1.1-2.2 1.9-3c .9-.8 1.9-1.5 3.1-2 1.2-.5 2.5-.7 4.1-.7.7 0 1.4.1 2.2.2.8.2 1.5.4 2.2.7l-.9 2.3c-.7-.2-1.4-.4-1.9-.5-.5-.2-1.1-.2-1.7-.2-1 0-1.9.2-2.6.6-.7.4-1.3.9-1.8 1.5-.5.7-.8 1.4-1.1 2.2-.2.8-.4 1.7-.4 2.5s.2 1.7.4 2.5.6 1.5 1.1 2.2c.5.7 1.1 1.2 1.8 1.5.7.4 1.6.6 2.6.6 1.1 0 2.2-.3 3.5-.8l1 2.2c-.8.4-1.5.7-2.2.9-.6.3-1.4.4-2.1.4"/><path d="m128.7 152.6c-1.1 0-2.2-.2-3.1-.5-.9-.4-1.7-.8-2.3-1.4-.6-.6-1.1-1.4-1.4-2.3-.4-1-.5-2-.5-3.2v-11.3h3.6v11.8c0 .7.2 1.3.3 1.8.2.5.5 1 .8 1.4s.7.7 1.2.9c.5.2 1 .3 1.5.3.6 0 1.1-.2 1.5-.3.5-.2.9-.5 1.2-.9.4-.4.6-.8.8-1.4.2-.6.3-1.2.3-1.8v-11.8h3.6v11.3c0 1.1-.2 2.1-.5 3.1-.4.9-.8 1.7-1.4 2.3-.6.7-1.4 1.2-2.3 1.5-1.1.3-2.2.5-3.3.5"/><path d="m86.2 121.5c19.7 0 42.7-8.9 45-31.4.5-5.1-3.1-25.6-18.1-42.7l-13.4 17.4h-27l-13.4-17.4c-15.1 17-18.6 37.6-18.1 42.7 2.4 22.5 25.3 31.4 45 31.4"/></g><path d="m87.9 106.7l3.5-5.1c.7-1 .4-2.2-.7-2.8-1.3-.7-2.8-1.1-4.4-1.1-1.6 0-3.1.4-4.4 1.1-1.1.6-1.3 1.9-.7 2.8l3.5 5.1c.7 1.2 2.4 1.2 3.2 0"/><path d="m94.5 113.2c-3.6 0-6.8-2.1-8.3-5.2-1.5 3.1-4.7 5.2-8.3 5.2-2.2 0-4.3-.8-6.1-2.2-.4-.3-.4-.8-.2-1.1.3-.4.8-.4 1.1-.2 1.4 1.2 3.2 1.8 5 1.8 3.7 0 6.9-2.7 7.5-6.3.1-.4.4-.7.8-.7.4 0 .7.3.8.7.7 3.7 3.8 6.3 7.5 6.3 1.9 0 3.7-.6 5-1.8.4-.3.8-.2 1.1.2.3.4.2.8-.2 1.1-1.2 1.4-3.4 2.2-5.7 2.2"/><path d="m130.5 82c-1.1.3-2.2.6-3.4.9-10.9 2.5-25.4 3.9-40.9 3.9s-29.9-1.4-40.9-3.9c-1.2-.3-2.3-.6-3.4-.9-.2.9-.4 1.6-.5 2.4 2.2.6 4.6 1.1 7.1 1.6.5 6.6 6.9 11.8 14.8 12 6.8.2 12.6-3.7 14.4-8.9 2.7.2 5.5.2 8.2.2 2.2 0 4.6-.1 6.8-.2 1.9 5.2 7.7 9 14.4 8.9 7.7-.2 14.1-5.2 14.7-11.7 3.1-.6 6-1.2 8.6-1.9.4-.8.2-1.5.1-2.4"/></svg>