<svg id="svg8" height="130" viewBox="0 0 44.979165 34.395833" width="170" xmlns="http://www.w3.org/2000/svg" xmlns:xlink="http://www.w3.org/1999/xlink"><defs id="defs2"><linearGradient id="linearGradient896" gradientTransform="matrix(.994164 0 0 .99007884 .131249 2.775951)" gradientUnits="userSpaceOnUse" x1="0" x2="0" y1="266.57294" y2="293.03128"><stop id="stop890" offset="0" stop-color="#999"/><stop id="stop892" offset="1" stop-color="#e6e6e6"/></linearGradient></defs><g id="layer1" stroke-miterlimit="10" transform="translate(0 -262.60417)"><path id="rect888" d="m.131249 266.70416h44.716667v26.195835h-44.716667z" fill="url(#linearGradient896)" stroke="#999" stroke-width=".262467"/><path id="rect817" d="m3.96875 270.27713h9.260417v3.96875h-9.260417z" fill="#666" stroke-width=".262406"/><path id="rect819" d="m15.610415 270.27713h5.622397v3.96875h-5.622397z" fill="#666" stroke-width=".204465"/><path id="rect821" d="m23.547918 270.27713h10.054168v3.96875h-10.054168z" fill="#666" stroke-width=".27342"/><g fill="#fff"><path id="rect825" d="m3.96875 279.80212h9.260417v2.248958h-9.260417z" stroke-width=".197532"/><path id="rect829" d="m14.552085 279.80212h2.315105v2.248958h-2.315105z" stroke-width=".098766"/><path id="rect831" d="m18.25625 279.80212h5.357813v2.248958h-5.357813z" stroke-width=".15025"/><path id="rect833" d="m25.135416 279.80212h9.260417v2.248958h-9.260417z" stroke-width=".197532"/><path id="rect835" d="m35.71875 279.80212h5.291249v2.248958h-5.291249z" stroke-width=".149314"/><path id="rect837" d="m10.847916 283.50626h9.260417v2.248958h-9.260417z" stroke-width=".197532"/><path id="rect839" d="m21.431253 283.50626h9.260418v2.248958h-9.260418z" stroke-width=".197532"/><path id="rect841" d="m3.96875 283.50626h5.357813v2.248958h-5.357813z" stroke-width=".15025"/><path id="rect845" d="m32.345314 283.50626h8.664687v2.248958h-8.664687z" stroke-width=".191072"/><path id="rect847" d="m14.552084 287.21039h5.357813v2.248958h-5.357813z" stroke-width=".15025"/><path id="rect849" d="m30.427082 287.21039h5.357813v2.248958h-5.357813z" stroke-width=".15025"/><path id="rect851" d="m37.570835 287.21039h3.439164v2.248958h-3.439164z" stroke-width=".120378"/><path id="rect853" d="m3.96875 287.21039h9.260417v2.248958h-9.260417z" stroke-width=".197532"/><path id="rect855" d="m21.431253 287.21048h7.474062v2.248958h-7.474062z" stroke-width=".17746"/><path id="rect848" d="m3.96875 276.62714h37.041664v.264583h-37.041664z" stroke-width=".135506"/></g></g></svg>