<svg id="svg8" height="130" viewBox="0 0 44.979165 34.395833" width="170" xmlns="http://www.w3.org/2000/svg"><g stroke-miterlimit="10"><g id="g909" transform="matrix(.58173884 0 0 .58173884 17.195107 -145.29464)"><path id="rect878" d="m24.638021 273.08698h16.340622v16.340622h-16.340622z" fill="#f2f2f2" stroke="#999" stroke-width=".454815"/><g stroke="#808080"><path id="path880" d="m32.277662 279.34165h-4.362617l2.181309-3.77813z" fill="#ccc" stroke-width=".299827" transform="matrix(1.5258955 0 0 1.508001 -15.948218 -138.88208)"/><ellipse id="path882" cx="36.124359" cy="278.978" fill="#f9f9f9" rx="2.304727" ry="2.277699" stroke-width=".454815"/><path id="rect884" d="m32.245789 284.01904h3.23102v3.193129h-3.23102z" fill="#b3b3b3" stroke-width=".454815"/></g></g><path id="rect817" d="m3.969 3.96883h9.260416v3.96875h-9.260416z" fill="#808080" stroke-width=".262406"/><path id="rect819" d="m15.610665 3.96883h5.622396v3.96875h-5.622396z" fill="#808080" stroke-width=".204465"/><path id="rect821" d="m23.54817 3.96883h10.054168v3.96875h-10.054168z" fill="#808080" stroke-width=".27342"/><g fill="#e6e6e6"><path id="rect825" d="m3.969 13.49382h9.260416v2.248958h-9.260416z" stroke-width=".197532"/><path id="rect829" d="m14.552335 13.49382h2.315105v2.248958h-2.315105z" stroke-width=".098766"/><path id="rect831" d="m18.256502 13.49382h5.357813v2.248958h-5.357813z" stroke-width=".15025"/><path id="rect835" d="m24.606503 13.49382h5.291249v2.248958h-5.291249z" stroke-width=".149314"/><path id="rect837" d="m10.848165 17.19795h9.260416v2.248958h-9.260416z" stroke-width=".197532"/><path id="rect839" d="m21.431505 17.19795h7.474479v2.248958h-7.474479z" stroke-width=".177465"/><path id="rect841" d="m3.969 17.19795h5.357813v2.248958h-5.357813z" stroke-width=".15025"/><path id="rect847" d="m14.552334 20.90209h5.357813v2.248958h-5.357813z" stroke-width=".15025"/><path id="rect853" d="m3.969 20.90209h9.260416v2.248958h-9.260416z" stroke-width=".197532"/><path id="rect855" d="m21.431505 20.90218h8.664686v2.248958h-8.664686z" stroke-width=".191072"/><path id="rect857" d="m10.848165 28.17821h9.260416v2.248958h-9.260416z" stroke-width=".197532"/><path id="rect859" d="m21.431505 28.17821h9.260417v2.248958h-9.260417z" stroke-width=".197532"/><path id="rect861" d="m3.969 28.17821h5.357813v2.248958h-5.357813z" stroke-width=".15025"/><path id="rect863" d="m32.345566 28.17821h6.419623v2.248958h-6.419623z" stroke-width=".164466"/></g><path id="rect848" d="m3.969 10.31883h37.04166v.264583h-37.04166z" fill="#b3b3b3" stroke-width=".135506"/><path id="rect1005" d="m3.969 24.60631h9.260416v2.248958h-9.260416z" fill="#e6e6e6" stroke-width=".197532"/><path id="rect1007" d="m14.552335 24.60631h2.315105v2.248958h-2.315105z" fill="#e6e6e6" stroke-width=".098766"/><path id="rect1009" d="m18.256502 24.60631h5.357813v2.248958h-5.357813z" fill="#e6e6e6" stroke-width=".15025"/><path id="rect1013" d="m25.003374 24.60622h6.019272v2.248958h-6.019272z" fill="#e6e6e6" stroke-width=".159255"/><path id="rect1015" d="m32.544006 24.60631h7.474062v2.248958h-7.474062z" fill="#e6e6e6" stroke-width=".17746"/></g></svg>