<svg id="svg8" height="130" viewBox="0 0 44.979165 34.395833" width="170" xmlns="http://www.w3.org/2000/svg"><g stroke-miterlimit="10"><path id="rect817" d="m3.96875 3.96874h9.260417v3.96875h-9.260417z" fill="#808080" stroke-width=".262406"/><path id="rect819" d="m15.610415 3.96874h5.622397v3.96875h-5.622397z" fill="#808080" stroke-width=".204465"/><path id="rect821" d="m23.547918 3.96874h10.054168v3.96875h-10.054168z" fill="#808080" stroke-width=".27342"/><g fill="#e6e6e6"><path id="rect825" d="m3.96875 13.49373h9.260417v2.248958h-9.260417z" stroke-width=".197532"/><path id="rect829" d="m14.552085 13.49373h2.315105v2.248958h-2.315105z" stroke-width=".098766"/><path id="rect831" d="m18.25625 13.49373h5.357813v2.248958h-5.357813z" stroke-width=".15025"/><path id="rect833" d="m25.135416 13.49373h9.260417v2.248958h-9.260417z" stroke-width=".197532"/><path id="rect835" d="m35.71875 13.49373h5.291249v2.248958h-5.291249z" stroke-width=".149314"/><path id="rect837" d="m10.847916 17.19786h9.260417v2.248958h-9.260417z" stroke-width=".197532"/><path id="rect839" d="m21.431253 17.19786h9.260418v2.248958h-9.260418z" stroke-width=".197532"/><path id="rect841" d="m3.96875 17.19786h5.357813v2.248958h-5.357813z" stroke-width=".15025"/><path id="rect845" d="m32.345314 17.19786h8.664687v2.248958h-8.664687z" stroke-width=".191072"/><path id="rect847" d="m14.552084 20.90199h5.357813v2.248958h-5.357813z" stroke-width=".15025"/><path id="rect849" d="m30.427082 20.90199h5.357813v2.248958h-5.357813z" stroke-width=".15025"/><path id="rect851" d="m37.570835 20.90199h3.439164v2.248958h-3.439164z" stroke-width=".120378"/><path id="rect853" d="m3.96875 20.90199h9.260417v2.248958h-9.260417z" stroke-width=".197532"/><path id="rect855" d="m21.431253 20.90209h7.474062v2.248958h-7.474062z" stroke-width=".17746"/><path id="rect857" d="m10.847916 28.17812h9.260417v2.248958h-9.260417z" stroke-width=".197532"/><path id="rect859" d="m21.431253 28.17812h9.260418v2.248958h-9.260418z" stroke-width=".197532"/><path id="rect861" d="m3.96875 28.17812h5.357813v2.248958h-5.357813z" stroke-width=".15025"/><path id="rect863" d="m32.345314 28.17812h8.664687v2.248958h-8.664687z" stroke-width=".191072"/></g><path id="rect848" d="m3.96875 10.31874h37.041664v.264583h-37.041664z" fill="#b3b3b3" stroke-width=".135506"/></g></svg>