<svg id="svg8" height="130" viewBox="0 0 44.979165 34.395833" width="170" xmlns="http://www.w3.org/2000/svg"><g id="layer1" stroke-miterlimit="10" transform="translate(0 -262.60417)"><path id="rect817" d="m3.96875 266.57291h9.260417v3.96875h-9.260417z" fill="#808080" stroke-width=".262406"/><path id="rect819" d="m15.610415 266.57291h5.027085v3.96875h-5.027085z" fill="#808080" stroke-width=".193337"/><g fill="#e6e6e6"><path id="rect825" d="m3.96875 276.09787h9.260417v2.248958h-9.260417z" stroke-width=".197532"/><path id="rect829" d="m14.552085 276.09787h2.315105v2.248958h-2.315105z" stroke-width=".098766"/><path id="rect837" d="m10.847916 279.802h9.260417v2.248958h-9.260417z" stroke-width=".197532"/><path id="rect841" d="m3.96875 279.802h5.357813v2.248958h-5.357813z" stroke-width=".15025"/><path id="rect847" d="m14.552084 283.50613h5.357813v2.248958h-5.357813z" stroke-width=".15025"/><path id="rect853" d="m3.96875 283.50613h9.260417v2.248958h-9.260417z" stroke-width=".197532"/><path id="rect857" d="m10.847916 290.78229h9.260417v2.248958h-9.260417z" stroke-width=".197532"/><path id="rect861" d="m3.96875 290.78229h5.357813v2.248958h-5.357813z" stroke-width=".15025"/><path id="rect865" d="m3.968756 287.21027h3.902605v2.248958h-3.902605z" stroke-width=".128233"/><path id="rect869" d="m9.326556 287.21027h9.565695v2.248958h-9.565695z" stroke-width=".200761"/></g><path id="rect848" d="m3.96875 272.92294h16.668751v.264583h-16.668751z" fill="#b3b3b3" stroke-width=".0909"/><path id="rect878" d="m24.638021 273.08698h16.340622v16.340622h-16.340622z" fill="#f2f2f2" stroke="#999" stroke-width=".264583"/><path id="path880" d="m32.277662 279.34165h-4.362617l2.181309-3.77813z" fill="#ccc" stroke="#808080" stroke-width=".174421" transform="matrix(1.5258955 0 0 1.508001 -15.948218 -138.88208)"/><ellipse id="path882" cx="36.124359" cy="278.978" fill="#f9f9f9" rx="2.304727" ry="2.277699" stroke="#808080" stroke-width=".264583"/><path id="rect884" d="m32.245789 284.01904h3.23102v3.193129h-3.23102z" fill="#b3b3b3" stroke="#808080" stroke-width=".264583"/></g></svg>