<svg id="svg8" height="130" viewBox="0 0 44.979165 34.395833" width="170" xmlns="http://www.w3.org/2000/svg"><g stroke-miterlimit="10"><path id="rect817" d="m3.96875 3.96874h9.260417v3.96875h-9.260417z" fill="#808080" stroke-width=".262406"/><path id="rect819" d="m15.610415 3.96874h5.622397v3.96875h-5.622397z" fill="#808080" stroke-width=".204465"/><path id="rect821" d="m23.547918 3.96874h10.054168v3.96875h-10.054168z" fill="#808080" stroke-width=".27342"/><g fill="#e6e6e6"><path id="rect825" d="m3.96875 13.4937h9.260417v2.248958h-9.260417z" stroke-width=".197532"/><path id="rect829" d="m14.552085 13.4937h2.315105v2.248958h-2.315105z" stroke-width=".098766"/><path id="rect831" d="m24.606251 24.6061h5.357813v2.248958h-5.357813z" stroke-width=".15025"/><path id="rect833" d="m24.606249 13.4937h9.789584v2.248958h-9.789584z" stroke-width=".203097"/><path id="rect835" d="m35.71875 13.4937h5.291249v2.248958h-5.291249z" stroke-width=".149314"/><path id="rect837" d="m10.847916 17.19783h9.260417v2.248958h-9.260417z" stroke-width=".197532"/><path id="rect839" d="m24.606249 17.19783h6.085423v2.248958h-6.085423z" stroke-width=".160128"/><path id="rect841" d="m3.96875 17.19783h5.357813v2.248958h-5.357813z" stroke-width=".15025"/><path id="rect845" d="m32.345314 17.19783h8.664687v2.248958h-8.664687z" stroke-width=".191072"/><path id="rect847" d="m14.552084 20.90196h5.357813v2.248958h-5.357813z" stroke-width=".15025"/><path id="rect849" d="m30.427082 20.90196h9.193131v2.248958h-9.193131z" stroke-width=".196813"/><path id="rect853" d="m3.96875 20.90196h9.260417v2.248958h-9.260417z" stroke-width=".197532"/><path id="rect855" d="m24.606249 20.90206h4.299067v2.248958h-4.299067z" stroke-width=".134589"/><path id="rect857" d="m10.847916 28.17812h9.260417v2.248958h-9.260417z" stroke-width=".197532"/><path id="rect859" d="m24.606249 28.17812h6.085423v2.248958h-6.085423z" stroke-width=".160128"/><path id="rect861" d="m3.96875 28.17812h5.357813v2.248958h-5.357813z" stroke-width=".15025"/><path id="rect863" d="m32.345314 28.17812h8.664687v2.248958h-8.664687z" stroke-width=".191072"/><path id="rect865" d="m3.968756 24.6061h3.902605v2.248958h-3.902605z" stroke-width=".128233"/><path id="rect869" d="m9.326556 24.6061h9.565695v2.248958h-9.565695z" stroke-width=".200761"/><path id="rect871" d="m37.570835 24.6061h3.439164v2.248958h-3.439164z" stroke-width=".120378"/><path id="rect846" d="m31.485416 24.60619h4.564064v2.248958h-4.564064z" stroke-width=".138675"/></g><path id="rect848" d="m3.96875 10.31877h37.041664v.264583h-37.041664z" fill="#b3b3b3" stroke-width=".135506"/></g></svg>